<svg xmlns="http://www.w3.org/2000/svg" viewBox="0 0 512 512" role="img" aria-labelledby="title desc">
  <title id="title">可愛咖啡豆圖標</title>
  <desc id="desc">米色背景上的簡約可愛咖啡豆，有黑色描邊與小表情。</desc>
  <rect width="512" height="512" rx="96" fill="#f3dfbd"/>
  <g transform="rotate(-18 256 258)">
    <ellipse cx="256" cy="258" rx="184" ry="125" fill="#0b0806"/>
    <ellipse cx="256" cy="258" rx="168" ry="109" fill="#956432"/>
    <path d="M99 261c50-54 104-84 162-91 63-8 113 7 153 39" fill="none" stroke="#6b4424" stroke-width="22" stroke-linecap="round" opacity="0.72"/>
    <path d="M116 326c52 16 108 11 170-15 50-21 88-23 117-6" fill="none" stroke="#6f4524" stroke-width="18" stroke-linecap="round" opacity="0.62"/>
    <path d="M123 210c35-35 82-56 140-62" fill="none" stroke="#ad7841" stroke-width="16" stroke-linecap="round" opacity="0.45"/>
  </g>
  <g>
    <circle cx="220" cy="252" r="10" fill="#080604"/>
    <circle cx="275" cy="252" r="10" fill="#080604"/>
    <path d="M222 283c21 11 46 10 65-3" fill="none" stroke="#080604" stroke-width="12" stroke-linecap="round"/>
    <path d="M292 260c15 12 20 26 13 42" fill="none" stroke="#080604" stroke-width="11" stroke-linecap="round"/>
  </g>
</svg>
