<svg xmlns="http://www.w3.org/2000/svg" viewBox="0 0 512 512" role="img" aria-labelledby="title desc">
  <title id="title">咖啡試烘曲線比較表圖標</title>
  <desc id="desc">咖啡豆與烘焙曲線結合的應用程式圖標</desc>
  <defs>
    <linearGradient id="bg" x1="74" y1="36" x2="438" y2="476" gradientUnits="userSpaceOnUse">
      <stop offset="0" stop-color="#fff4d6"/>
      <stop offset="0.48" stop-color="#e9b66d"/>
      <stop offset="1" stop-color="#6f3216"/>
    </linearGradient>
    <linearGradient id="bean" x1="128" y1="110" x2="382" y2="418" gradientUnits="userSpaceOnUse">
      <stop offset="0" stop-color="#8b451f"/>
      <stop offset="0.52" stop-color="#4b2517"/>
      <stop offset="1" stop-color="#24120d"/>
    </linearGradient>
    <filter id="shadow" x="-20%" y="-20%" width="140%" height="140%">
      <feDropShadow dx="0" dy="14" stdDeviation="16" flood-color="#2a1209" flood-opacity="0.26"/>
    </filter>
  </defs>
  <rect width="512" height="512" rx="112" fill="url(#bg)"/>
  <circle cx="96" cy="88" r="38" fill="#ffffff" opacity="0.24"/>
  <circle cx="438" cy="406" r="56" fill="#ffffff" opacity="0.12"/>
  <g filter="url(#shadow)">
    <path d="M139 342c-45-83-24-183 46-224 71-41 161-8 206 74 45 83 24 183-46 224-71 41-161 8-206-74Z" fill="url(#bean)"/>
    <path d="M258 111c-26 42-32 82-18 121 15 42 48 74 57 119 6 30 1 57-15 82" fill="none" stroke="#f6d7a8" stroke-width="24" stroke-linecap="round" opacity="0.88"/>
    <path d="M185 331c38-32 74-49 109-50 35 0 67 15 96 45" fill="none" stroke="#f9c66b" stroke-width="22" stroke-linecap="round"/>
    <path d="M177 329c38-34 77-53 117-54 41-1 78 15 112 48" fill="none" stroke="#fff8e7" stroke-width="8" stroke-linecap="round" opacity="0.95"/>
    <circle cx="185" cy="331" r="13" fill="#fff8e7"/>
    <circle cx="294" cy="276" r="13" fill="#fff8e7"/>
    <circle cx="405" cy="323" r="13" fill="#fff8e7"/>
  </g>
  <path d="M124 86c25-20 53-30 83-31" fill="none" stroke="#fff8e7" stroke-width="18" stroke-linecap="round" opacity="0.8"/>
</svg>
